<?xml version="1.0" encoding="UTF-8" standalone="no"?>
<svg
   xmlns:dc="http://purl.org/dc/elements/1.1/"
   xmlns:cc="http://creativecommons.org/ns#"
   xmlns:rdf="http://www.w3.org/1999/02/22-rdf-syntax-ns#"
   xmlns:svg="http://www.w3.org/2000/svg"
   xmlns="http://www.w3.org/2000/svg"
   height="512px"
   width="512px"
   xml:space="preserve"
   style="enable-background:new 0 0 93.651 93.651;"
   viewBox="0 0 93.651 93.651"
   y="0px"
   x="0px"
   id="Capa_1"
   version="1.1"><metadata
     id="metadata39"><rdf:RDF><cc:Work
         rdf:about=""><dc:format>image/svg+xml</dc:format><dc:type
           rdf:resource="http://purl.org/dc/dcmitype/StillImage" /><dc:title></dc:title></cc:Work></rdf:RDF></metadata><defs
     id="defs37" /><path
     fill="#006DF0"
     id="path3"
     d="M62.093,73.15c-6.914,6.679-15.97,10.31-25.404,10.31c-1.603,0-3.217-0.105-4.833-0.318  C11.831,80.508-2.318,62.073,0.315,42.047C2.95,22.022,21.38,7.871,41.411,10.506c0.515,0.068,1.024,0.152,1.531,0.24  c0.718,0.125,1.305,0.643,1.519,1.34c0.214,0.697,0.018,1.455-0.506,1.961c-4.536,4.381-7.628,9.811-9.071,15.851h-3.974  c1.243-5.848,3.853-11.21,7.684-15.774c-0.664-0.04-1.325-0.06-1.983-0.06c-16.179,0-30.289,12.023-32.455,28.488  C1.8,60.461,14.453,76.947,32.362,79.303c8.714,1.144,17.36-1.211,24.233-6.511c-6.034-1.719-11.336-4.895-15.584-9.072h5.921  c4.03,3.045,8.826,5.203,14.148,6.13c0.718,0.125,1.305,0.643,1.519,1.34C62.813,71.886,62.618,72.643,62.093,73.15z M71.026,57.598  c0-1.069-0.867-1.937-1.937-1.937h-9.212l10.453-10.555c0.549-0.555,0.712-1.387,0.411-2.108c-0.301-0.721-1.006-1.191-1.787-1.191  h-13.72c-1.069,0-1.937,0.867-1.937,1.937c0,1.07,0.867,1.937,1.937,1.937h9.077L53.858,56.236  c-0.549,0.556-0.712,1.387-0.411,2.108c0.301,0.721,1.006,1.191,1.787,1.191h13.855C70.158,59.535,71.026,58.668,71.026,57.598z   M93.651,57.598c0-1.069-0.867-1.937-1.937-1.937h-9.211l10.453-10.555c0.55-0.555,0.712-1.387,0.411-2.108  c-0.301-0.721-1.006-1.191-1.787-1.191H77.86c-1.069,0-1.937,0.867-1.937,1.937c0,1.07,0.867,1.937,1.937,1.937h9.076L76.484,56.236  c-0.549,0.556-0.712,1.387-0.411,2.108c0.301,0.721,1.006,1.191,1.787,1.191h13.854C92.784,59.535,93.651,58.668,93.651,57.598z   M48.798,57.598c0-1.069-0.867-1.937-1.937-1.937H29.77l18.257-18.436c0.55-0.555,0.712-1.387,0.411-2.108  c-0.301-0.721-1.006-1.191-1.787-1.191H25.127c-1.07,0-1.937,0.867-1.937,1.936c0,1.07,0.867,1.937,1.937,1.937h16.881  L23.751,56.236c-0.55,0.556-0.712,1.387-0.411,2.108c0.301,0.721,1.006,1.191,1.787,1.191h21.735  C47.931,59.535,48.798,58.668,48.798,57.598z" /><g
     id="g5" /><g
     id="g7" /><g
     id="g9" /><g
     id="g11" /><g
     id="g13" /><g
     id="g15" /><g
     id="g17" /><g
     id="g19" /><g
     id="g21" /><g
     id="g23" /><g
     id="g25" /><g
     id="g27" /><g
     id="g29" /><g
     id="g31" /><g
     id="g33" /></svg>