<?xml version="1.0" encoding="UTF-8" standalone="no"?>
<svg
   xmlns:dc="http://purl.org/dc/elements/1.1/"
   xmlns:cc="http://creativecommons.org/ns#"
   xmlns:rdf="http://www.w3.org/1999/02/22-rdf-syntax-ns#"
   xmlns:svg="http://www.w3.org/2000/svg"
   xmlns="http://www.w3.org/2000/svg"
   version="1.1"
   id="Capa_1"
   x="0px"
   y="0px"
   viewBox="0 0 97.309242 97.309242"
   xml:space="preserve"
   width="532"
   height="532"><metadata
     id="metadata39"><rdf:RDF><cc:Work
         rdf:about=""><dc:format>image/svg+xml</dc:format><dc:type
           rdf:resource="http://purl.org/dc/dcmitype/StillImage" /><dc:title></dc:title></cc:Work></rdf:RDF></metadata><defs
     id="defs37" /><g
     transform="translate(1.828828,12.020121)"
     style="display:none"
     id="layer3"><rect
       y="-11.467333"
       x="-10.210671"
       height="96.203667"
       width="122.52806"
       id="rect4812"
       style="opacity:1;fill:#000000;fill-opacity:1;stroke:none;stroke-width:7.31648445;stroke-linejoin:miter;stroke-miterlimit:4;stroke-dasharray:none;stroke-dashoffset:0;stroke-opacity:1" /></g><g
     transform="translate(1.828828,12.020121)"
     id="g4807"
     style="display:none"><path
       style="fill:#006df0;stroke:#ffffff;stroke-width:7.31648445;stroke-miterlimit:4;stroke-dasharray:none;stroke-opacity:1"
       id="path4809"
       d="m 62.093,62.959053 c -6.914,6.679 -15.97,10.31 -25.404,10.31 -1.603,0 -3.217,-0.105 -4.833,-0.318 -20.025,-2.634 -34.174,-21.069 -31.541,-41.095 2.635,-20.025 21.065,-34.1760004 41.096,-31.54100042 0.515,0.068 1.024,0.152 1.531,0.24 0.718,0.125 1.305,0.64300002 1.519,1.34000002 0.214,0.697 0.018,1.455 -0.506,1.961 -4.536,4.381 -7.628,9.8110004 -9.071,15.8510004 l -3.974,0 c 1.243,-5.848 3.853,-11.2100004 7.684,-15.7740004 -0.664,-0.04 -1.325,-0.06 -1.983,-0.06 -16.179,0 -30.289,12.0230004 -32.455,28.4880004 -2.356,17.909 10.297,34.395 28.206,36.751 8.714,1.144 17.36,-1.211 24.233,-6.511 -6.034,-1.719 -11.336,-4.895 -15.584,-9.072 l 5.921,0 c 4.03,3.045 8.826,5.203 14.148,6.13 0.718,0.125 1.305,0.643 1.519,1.34 0.214,0.696 0.019,1.453 -0.506,1.96 z m 8.933,-15.552 c 0,-1.069 -0.867,-1.937 -1.937,-1.937 l -9.212,0 10.453,-10.555 c 0.549,-0.555 0.712,-1.387 0.411,-2.108 -0.301,-0.721 -1.006,-1.191 -1.787,-1.191 l -13.72,0 c -1.069,0 -1.937,0.867 -1.937,1.937 0,1.07 0.867,1.937 1.937,1.937 l 9.077,0 -10.453,10.555 c -0.549,0.556 -0.712,1.387 -0.411,2.108 0.301,0.721 1.006,1.191 1.787,1.191 l 13.855,0 c 1.069,0 1.937,-0.867 1.937,-1.937 z m 22.625,0 c 0,-1.069 -0.867,-1.937 -1.937,-1.937 l -9.211,0 10.453,-10.555 c 0.55,-0.555 0.712,-1.387 0.411,-2.108 -0.301,-0.721 -1.006,-1.191 -1.787,-1.191 l -13.72,0 c -1.069,0 -1.937,0.867 -1.937,1.937 0,1.07 0.867,1.937 1.937,1.937 l 9.076,0 -10.452,10.555 c -0.549,0.556 -0.712,1.387 -0.411,2.108 0.301,0.721 1.006,1.191 1.787,1.191 l 13.854,0 c 1.07,0 1.937,-0.867 1.937,-1.937 z m -44.853,0 c 0,-1.069 -0.867,-1.937 -1.937,-1.937 l -17.091,0 18.257,-18.436 c 0.55,-0.555 0.712,-1.387 0.411,-2.108 -0.301,-0.721 -1.006,-1.191 -1.787,-1.191 l -21.524,0 c -1.07,0 -1.937,0.867 -1.937,1.936 0,1.07 0.867,1.937 1.937,1.937 l 16.881,0 -18.257,18.437 c -0.55,0.556 -0.712,1.387 -0.411,2.108 0.301,0.721 1.006,1.191 1.787,1.191 l 21.735,0 c 1.069,0 1.936,-0.867 1.936,-1.937 z" /></g><g
     transform="translate(1.828828,12.020121)"
     style="display:none"
     id="layer1"><path
       d="m 62.093,62.959357 c -6.914,6.679 -15.97,10.31 -25.404,10.31 -1.603,0 -3.217,-0.105 -4.833,-0.318 -20.025,-2.634 -34.174,-21.069 -31.541,-41.095 2.635,-20.025 21.065,-34.1760004 41.096,-31.54100043 0.515,0.068 1.024,0.152 1.531,0.24 0.718,0.125 1.305,0.64300003 1.519,1.34000003 0.214,0.697 0.018,1.455 -0.506,1.961 -4.536,4.381 -7.628,9.8110004 -9.071,15.8510004 l -3.974,0 c 1.243,-5.848 3.853,-11.2100004 7.684,-15.7740004 -0.664,-0.04 -1.325,-0.06 -1.983,-0.06 -16.179,0 -30.289,12.0230004 -32.455,28.4880004 -2.356,17.909 10.297,34.395 28.206,36.751 8.714,1.144 17.36,-1.211 24.233,-6.511 -6.034,-1.719 -11.336,-4.895 -15.584,-9.072 l 5.921,0 c 4.03,3.045 8.826,5.203 14.148,6.13 0.718,0.125 1.305,0.643 1.519,1.34 0.214,0.696 0.019,1.453 -0.506,1.96 z m 8.933,-15.552 c 0,-1.069 -0.867,-1.937 -1.937,-1.937 l -9.212,0 10.453,-10.555 c 0.549,-0.555 0.712,-1.387 0.411,-2.108 -0.301,-0.721 -1.006,-1.191 -1.787,-1.191 l -13.72,0 c -1.069,0 -1.937,0.867 -1.937,1.937 0,1.07 0.867,1.937 1.937,1.937 l 9.077,0 -10.453,10.555 c -0.549,0.556 -0.712,1.387 -0.411,2.108 0.301,0.721 1.006,1.191 1.787,1.191 l 13.855,0 c 1.069,0 1.937,-0.867 1.937,-1.937 z m 22.625,0 c 0,-1.069 -0.867,-1.937 -1.937,-1.937 l -9.211,0 10.453,-10.555 c 0.55,-0.555 0.712,-1.387 0.411,-2.108 -0.301,-0.721 -1.006,-1.191 -1.787,-1.191 l -13.72,0 c -1.069,0 -1.937,0.867 -1.937,1.937 0,1.07 0.867,1.937 1.937,1.937 l 9.076,0 -10.452,10.555 c -0.549,0.556 -0.712,1.387 -0.411,2.108 0.301,0.721 1.006,1.191 1.787,1.191 l 13.854,0 c 1.07,0 1.937,-0.867 1.937,-1.937 z m -44.853,0 c 0,-1.069 -0.867,-1.937 -1.937,-1.937 l -17.091,0 18.257,-18.436 c 0.55,-0.555 0.712,-1.387 0.411,-2.108 -0.301,-0.721 -1.006,-1.191 -1.787,-1.191 l -21.524,0 c -1.07,0 -1.937,0.867 -1.937,1.936 0,1.07 0.867,1.937 1.937,1.937 l 16.881,0 -18.257,18.437 c -0.55,0.556 -0.712,1.387 -0.411,2.108 0.301,0.721 1.006,1.191 1.787,1.191 l 21.735,0 c 1.069,0 1.936,-0.867 1.936,-1.937 z"
       id="path3"
       style="fill:#006df0" /></g><g
     transform="translate(1.828828,12.020121)"
     id="g5" /><g
     transform="translate(1.828828,12.020121)"
     id="g7" /><g
     transform="translate(1.828828,12.020121)"
     id="g9" /><g
     transform="translate(1.828828,12.020121)"
     id="g11" /><g
     transform="translate(1.828828,12.020121)"
     id="g13" /><g
     transform="translate(1.828828,12.020121)"
     id="g15" /><g
     transform="translate(1.828828,12.020121)"
     id="g17" /><g
     transform="translate(1.828828,12.020121)"
     id="g19" /><g
     transform="translate(1.828828,12.020121)"
     id="g21" /><g
     transform="translate(1.828828,12.020121)"
     id="g23" /><g
     transform="translate(1.828828,12.020121)"
     id="g25" /><g
     transform="translate(1.828828,12.020121)"
     id="g27" /><g
     transform="translate(1.828828,12.020121)"
     id="g29" /><g
     transform="translate(1.828828,12.020121)"
     id="g31" /><g
     transform="translate(1.828828,12.020121)"
     id="g33" /><g
     style="display:none"
     id="g5635"
     transform="translate(1.828828,12.020121)"><path
       d="m 62.093,62.959053 c -6.914,6.679 -15.97,10.31 -25.404,10.31 -1.603,0 -3.217,-0.105 -4.833,-0.318 -20.025,-2.634 -34.174,-21.069 -31.541,-41.095 2.635,-20.025 21.065,-34.1760004 41.096,-31.54100042 0.515,0.068 1.024,0.152 1.531,0.24 0.718,0.125 1.305,0.64300002 1.519,1.34000002 0.214,0.697 0.018,1.455 -0.506,1.961 -4.536,4.381 -7.628,9.8110004 -9.071,15.8510004 l -3.974,0 c 1.243,-5.848 3.853,-11.2100004 7.684,-15.7740004 -0.664,-0.04 -1.325,-0.06 -1.983,-0.06 -16.179,0 -30.289,12.0230004 -32.455,28.4880004 -2.356,17.909 10.297,34.395 28.206,36.751 8.714,1.144 17.36,-1.211 24.233,-6.511 -6.034,-1.719 -11.336,-4.895 -15.584,-9.072 l 5.921,0 c 4.03,3.045 8.826,5.203 14.148,6.13 0.718,0.125 1.305,0.643 1.519,1.34 0.214,0.696 0.019,1.453 -0.506,1.96 z m 8.933,-15.552 c 0,-1.069 -0.867,-1.937 -1.937,-1.937 l -9.212,0 10.453,-10.555 c 0.549,-0.555 0.712,-1.387 0.411,-2.108 -0.301,-0.721 -1.006,-1.191 -1.787,-1.191 l -13.72,0 c -1.069,0 -1.937,0.867 -1.937,1.937 0,1.07 0.867,1.937 1.937,1.937 l 9.077,0 -10.453,10.555 c -0.549,0.556 -0.712,1.387 -0.411,2.108 0.301,0.721 1.006,1.191 1.787,1.191 l 13.855,0 c 1.069,0 1.937,-0.867 1.937,-1.937 z m 22.625,0 c 0,-1.069 -0.867,-1.937 -1.937,-1.937 l -9.211,0 10.453,-10.555 c 0.55,-0.555 0.712,-1.387 0.411,-2.108 -0.301,-0.721 -1.006,-1.191 -1.787,-1.191 l -13.72,0 c -1.069,0 -1.937,0.867 -1.937,1.937 0,1.07 0.867,1.937 1.937,1.937 l 9.076,0 -10.452,10.555 c -0.549,0.556 -0.712,1.387 -0.411,2.108 0.301,0.721 1.006,1.191 1.787,1.191 l 13.854,0 c 1.07,0 1.937,-0.867 1.937,-1.937 z m -44.853,0 c 0,-1.069 -0.867,-1.937 -1.937,-1.937 l -17.091,0 18.257,-18.436 c 0.55,-0.555 0.712,-1.387 0.411,-2.108 -0.301,-0.721 -1.006,-1.191 -1.787,-1.191 l -21.524,0 c -1.07,0 -1.937,0.867 -1.937,1.936 0,1.07 0.867,1.937 1.937,1.937 l 16.881,0 -18.257,18.437 c -0.55,0.556 -0.712,1.387 -0.411,2.108 0.301,0.721 1.006,1.191 1.787,1.191 l 21.735,0 c 1.069,0 1.936,-0.867 1.936,-1.937 z"
       id="path5637"
       style="fill:#006df0;stroke:#000000;stroke-width:1.82912111;stroke-miterlimit:4;stroke-dasharray:none;stroke-opacity:1" /></g><g
     id="g5639"
     style="display:none"
     transform="translate(1.828828,12.020121)"><path
       id="path6541"
       d="m 32.817905,19.311134 3.647024,-8.62024 3.149702,-4.3101189 c 0,0 2.320833,-1.3261909 1.657738,-2.8181554 -0.663094,-1.4919645 -5.138988,-1.4919645 -6.299405,-1.4919645 -1.160416,0 -12.764585,0.3315477 -18.56667,5.6363113 C 10.60421,13.011729 2.8128395,18.316491 2.3155179,28.428695 1.8181964,38.5409 4.6363516,55.284056 11.267305,60.754593 c 6.630955,5.470538 17.240479,11.106848 24.202981,11.438395 6.9625,0.331548 18.732442,-4.807441 20.555955,-6.133632 1.823513,-1.32619 4.144346,-4.310119 4.144346,-4.310119 l -16.908931,-8.288692 -24.700302,0 -0.497321,-33.320542 z"
       style="fill:#f4f3ed;fill-opacity:1;fill-rule:evenodd;stroke:none;stroke-width:0.18291211px;stroke-linecap:butt;stroke-linejoin:miter;stroke-opacity:1" /><path
       style="fill:#f4f3ed;fill-opacity:1"
       id="path5641"
       d="m 62.093,62.959357 c -6.914,6.679 -15.97,10.31 -25.404,10.31 -1.603,0 -3.217,-0.105 -4.833,-0.318 -20.025,-2.634 -34.174,-21.069 -31.541,-41.095 2.635,-20.025 21.065,-34.1760004 41.096,-31.54100043 0.515,0.068 1.024,0.152 1.531,0.24 0.718,0.125 1.305,0.64300003 1.519,1.34000003 0.214,0.697 0.018,1.455 -0.506,1.961 -4.536,4.381 -7.628,9.8110004 -9.071,15.8510004 l -3.974,0 c 1.243,-5.848 3.853,-11.2100004 7.684,-15.7740004 -0.664,-0.04 -1.325,-0.06 -1.983,-0.06 -16.179,0 -30.289,12.0230004 -32.455,28.4880004 -2.356,17.909 10.297,34.395 28.206,36.751 8.714,1.144 17.36,-1.211 24.233,-6.511 -6.034,-1.719 -11.336,-4.895 -15.584,-9.072 l 5.921,0 c 4.03,3.045 8.826,5.203 14.148,6.13 0.718,0.125 1.305,0.643 1.519,1.34 0.214,0.696 0.019,1.453 -0.506,1.96 z m 8.933,-15.552 c 0,-1.069 -0.867,-1.937 -1.937,-1.937 l -9.212,0 10.453,-10.555 c 0.549,-0.555 0.712,-1.387 0.411,-2.108 -0.301,-0.721 -1.006,-1.191 -1.787,-1.191 l -13.72,0 c -1.069,0 -1.937,0.867 -1.937,1.937 0,1.07 0.867,1.937 1.937,1.937 l 9.077,0 -10.453,10.555 c -0.549,0.556 -0.712,1.387 -0.411,2.108 0.301,0.721 1.006,1.191 1.787,1.191 l 13.855,0 c 1.069,0 1.937,-0.867 1.937,-1.937 z m 22.625,0 c 0,-1.069 -0.867,-1.937 -1.937,-1.937 l -9.211,0 10.453,-10.555 c 0.55,-0.555 0.712,-1.387 0.411,-2.108 -0.301,-0.721 -1.006,-1.191 -1.787,-1.191 l -13.72,0 c -1.069,0 -1.937,0.867 -1.937,1.937 0,1.07 0.867,1.937 1.937,1.937 l 9.076,0 -10.452,10.555 c -0.549,0.556 -0.712,1.387 -0.411,2.108 0.301,0.721 1.006,1.191 1.787,1.191 l 13.854,0 c 1.07,0 1.937,-0.867 1.937,-1.937 z m -44.853,0 c 0,-1.069 -0.867,-1.937 -1.937,-1.937 l -17.091,0 18.257,-18.436 c 0.55,-0.555 0.712,-1.387 0.411,-2.108 -0.301,-0.721 -1.006,-1.191 -1.787,-1.191 l -21.524,0 c -1.07,0 -1.937,0.867 -1.937,1.936 0,1.07 0.867,1.937 1.937,1.937 l 16.881,0 -18.257,18.437 c -0.55,0.556 -0.712,1.387 -0.411,2.108 0.301,0.721 1.006,1.191 1.787,1.191 l 21.735,0 c 1.069,0 1.936,-0.867 1.936,-1.937 z" /><path
       id="path6543"
       d="M 33.480999,31.24685 20.550641,43.514114 c 0,0 -0.331549,1.491964 -0.497322,2.155061 -0.165775,0.663095 -0.663097,1.32619 0.663095,3.315476 1.326191,1.989286 3.315476,3.149703 3.978572,3.315478 0.663095,0.165773 21.053277,0.165773 21.053277,0.165773 l 1.989286,2.155059 -4.31012,1.823513 -29.507743,-0.828869 -0.663095,-24.866075 4.475893,-16.743158 16.908933,3.647023 0.49732,3.481252 c 0,0 -10.443751,-0.331548 -11.935715,0.331546 -1.491965,0.663097 -2.652381,3.149705 -2.652381,3.8128 0,0.663095 -0.165775,3.315476 0.828868,4.310119 0.994643,0.994643 3.481251,1.160418 3.481251,1.160418 z"
       style="fill:#f4f3ed;fill-opacity:1;fill-rule:evenodd;stroke:none;stroke-width:0.18291211px;stroke-linecap:butt;stroke-linejoin:miter;stroke-opacity:1" /></g><g
     transform="translate(1.828828,12.020121)"
     style="display:inline"
     id="g4842"><path
       style="fill:#006df0;fill-opacity:1;fill-rule:evenodd;stroke:none;stroke-width:0.18291211px;stroke-linecap:butt;stroke-linejoin:miter;stroke-opacity:1"
       d="m 32.817905,19.311134 3.647024,-8.62024 3.149702,-4.3101189 c 0,0 2.320833,-1.3261909 1.657738,-2.8181554 -0.663094,-1.4919645 -5.138988,-1.4919645 -6.299405,-1.4919645 -1.160416,0 -12.764585,0.3315477 -18.56667,5.6363113 C 10.60421,13.011729 2.8128395,18.316491 2.3155179,28.428695 1.8181964,38.5409 4.6363516,55.284056 11.267305,60.754593 c 6.630955,5.470538 17.240479,11.106848 24.202981,11.438395 6.9625,0.331548 18.732442,-4.807441 20.555955,-6.133632 1.823513,-1.32619 4.144346,-4.310119 4.144346,-4.310119 l -16.908931,-8.288692 -24.700302,0 -0.497321,-33.320542 z"
       id="path4844" /><path
       d="m 62.093,62.959357 c -6.914,6.679 -15.97,10.31 -25.404,10.31 -1.603,0 -3.217,-0.105 -4.833,-0.318 -20.025,-2.634 -34.174,-21.069 -31.541,-41.095 2.635,-20.025 21.065,-34.1760004 41.096,-31.54100043 0.515,0.068 1.024,0.152 1.531,0.24 0.718,0.125 1.305,0.64300003 1.519,1.34000003 0.214,0.697 0.018,1.455 -0.506,1.961 -4.536,4.381 -7.628,9.8110004 -9.071,15.8510004 l -3.974,0 c 1.243,-5.848 3.853,-11.2100004 7.684,-15.7740004 -0.664,-0.04 -1.325,-0.06 -1.983,-0.06 -16.179,0 -30.289,12.0230004 -32.455,28.4880004 -2.356,17.909 10.297,34.395 28.206,36.751 8.714,1.144 17.36,-1.211 24.233,-6.511 -6.034,-1.719 -11.336,-4.895 -15.584,-9.072 l 5.921,0 c 4.03,3.045 8.826,5.203 14.148,6.13 0.718,0.125 1.305,0.643 1.519,1.34 0.214,0.696 0.019,1.453 -0.506,1.96 z m 8.933,-15.552 c 0,-1.069 -0.867,-1.937 -1.937,-1.937 l -9.212,0 10.453,-10.555 c 0.549,-0.555 0.712,-1.387 0.411,-2.108 -0.301,-0.721 -1.006,-1.191 -1.787,-1.191 l -13.72,0 c -1.069,0 -1.937,0.867 -1.937,1.937 0,1.07 0.867,1.937 1.937,1.937 l 9.077,0 -10.453,10.555 c -0.549,0.556 -0.712,1.387 -0.411,2.108 0.301,0.721 1.006,1.191 1.787,1.191 l 13.855,0 c 1.069,0 1.937,-0.867 1.937,-1.937 z m 22.625,0 c 0,-1.069 -0.867,-1.937 -1.937,-1.937 l -9.211,0 10.453,-10.555 c 0.55,-0.555 0.712,-1.387 0.411,-2.108 -0.301,-0.721 -1.006,-1.191 -1.787,-1.191 l -13.72,0 c -1.069,0 -1.937,0.867 -1.937,1.937 0,1.07 0.867,1.937 1.937,1.937 l 9.076,0 -10.452,10.555 c -0.549,0.556 -0.712,1.387 -0.411,2.108 0.301,0.721 1.006,1.191 1.787,1.191 l 13.854,0 c 1.07,0 1.937,-0.867 1.937,-1.937 z m -44.853,0 c 0,-1.069 -0.867,-1.937 -1.937,-1.937 l -17.091,0 18.257,-18.436 c 0.55,-0.555 0.712,-1.387 0.411,-2.108 -0.301,-0.721 -1.006,-1.191 -1.787,-1.191 l -21.524,0 c -1.07,0 -1.937,0.867 -1.937,1.936 0,1.07 0.867,1.937 1.937,1.937 l 16.881,0 -18.257,18.437 c -0.55,0.556 -0.712,1.387 -0.411,2.108 0.301,0.721 1.006,1.191 1.787,1.191 l 21.735,0 c 1.069,0 1.936,-0.867 1.936,-1.937 z"
       id="path4846"
       style="fill:#006df0;fill-opacity:1" /><path
       style="fill:#006df0;fill-opacity:1;fill-rule:evenodd;stroke:none;stroke-width:0.18291211px;stroke-linecap:butt;stroke-linejoin:miter;stroke-opacity:1"
       d="M 33.480999,31.24685 20.550641,43.514114 c 0,0 -0.331549,1.491964 -0.497322,2.155061 -0.165775,0.663095 -0.663097,1.32619 0.663095,3.315476 1.326191,1.989286 3.315476,3.149703 3.978572,3.315478 0.663095,0.165773 21.053277,0.165773 21.053277,0.165773 l 1.989286,2.155059 -4.31012,1.823513 -29.507743,-0.828869 -0.663095,-24.866075 4.475893,-16.743158 16.908933,3.647023 0.49732,3.481252 c 0,0 -10.443751,-0.331548 -11.935715,0.331546 -1.491965,0.663097 -2.652381,3.149705 -2.652381,3.8128 0,0.663095 -0.165775,3.315476 0.828868,4.310119 0.994643,0.994643 3.481251,1.160418 3.481251,1.160418 z"
       id="path4848" /></g><g
     style="display:none"
     id="layer4"><g
       transform="translate(7.8312557,2.9839291)"
       id="g6469"><circle
         style="opacity:1;fill:#ff0000;fill-opacity:1;stroke:none;stroke-width:1.82912111;stroke-linejoin:miter;stroke-miterlimit:4;stroke-dasharray:none;stroke-dashoffset:0;stroke-opacity:1"
         id="path6400"
         cx="59.264145"
         cy="52.301643"
         r="30.253727" /><rect
         style="opacity:1;fill:#ffffff;fill-opacity:1;stroke:none;stroke-width:10;stroke-linejoin:miter;stroke-miterlimit:4;stroke-dasharray:none;stroke-dashoffset:0;stroke-opacity:1"
         id="rect6402"
         width="41.277687"
         height="11.769942"
         x="38.625301"
         y="46.416672" /></g></g></svg>